<svg xmlns="http://www.w3.org/2000/svg" width="256" height="256" viewBox="0 0 256 256"><rect width="256" height="256" rx="16" fill="#edf0e5"/><polygon points="128.0,88.5 128.0,184.5 150.5,99.0" fill="#80977c" stroke="#526c57" stroke-width="0.4"/><polygon points="128.0,184.5 150.5,195.0 150.5,99.0" fill="#80977c" stroke="#526c57" stroke-width="0.4"/><polygon points="128.0,109.5 128.0,205.5 105.5,99.0" fill="#80977c" stroke="#526c57" stroke-width="0.4"/><polygon points="128.0,205.5 105.5,195.0 105.5,99.0" fill="#80977c" stroke="#526c57" stroke-width="0.4"/><polygon points="128.0,109.5 105.5,99.0 150.5,99.0" fill="#80977c" stroke="#526c57" stroke-width="0.4"/><polygon points="105.5,99.0 128.0,88.5 150.5,99.0" fill="#80977c" stroke="#526c57" stroke-width="0.4"/><polygon points="105.5,195.0 128.0,205.5 128.0,184.5" fill="#80977c" stroke="#526c57" stroke-width="0.4"/><polygon points="128.0,205.5 150.5,195.0 128.0,184.5" fill="#80977c" stroke="#526c57" stroke-width="0.4"/><polygon points="105.5,99.0 105.5,195.0 128.0,88.5" fill="#80977c" stroke="#526c57" stroke-width="0.4"/><polygon points="105.5,195.0 128.0,184.5 128.0,88.5" fill="#80977c" stroke="#526c57" stroke-width="0.4"/><polygon points="150.5,99.0 150.5,195.0 128.0,109.5" fill="#80977c" stroke="#526c57" stroke-width="0.4"/><polygon points="150.5,195.0 128.0,205.5 128.0,109.5" fill="#80977c" stroke="#526c57" stroke-width="0.4"/><polygon points="128.0,57.5 128.0,81.5 165.5,75.0" fill="#80977c" stroke="#526c57" stroke-width="0.4"/><polygon points="128.0,81.5 165.5,99.0 165.5,75.0" fill="#80977c" stroke="#526c57" stroke-width="0.4"/><polygon points="128.0,92.5 128.0,116.5 90.5,75.0" fill="#80977c" stroke="#526c57" stroke-width="0.4"/><polygon points="128.0,116.5 90.5,99.0 90.5,75.0" fill="#80977c" stroke="#526c57" stroke-width="0.4"/><polygon points="128.0,92.5 90.5,75.0 165.5,75.0" fill="#80977c" stroke="#526c57" stroke-width="0.4"/><polygon points="90.5,75.0 128.0,57.5 165.5,75.0" fill="#80977c" stroke="#526c57" stroke-width="0.4"/><polygon points="90.5,99.0 128.0,116.5 128.0,81.5" fill="#80977c" stroke="#526c57" stroke-width="0.4"/><polygon points="128.0,116.5 165.5,99.0 128.0,81.5" fill="#80977c" stroke="#526c57" stroke-width="0.4"/><polygon points="90.5,75.0 90.5,99.0 128.0,57.5" fill="#80977c" stroke="#526c57" stroke-width="0.4"/><polygon points="90.5,99.0 128.0,81.5 128.0,57.5" fill="#80977c" stroke="#526c57" stroke-width="0.4"/><polygon points="165.5,75.0 165.5,99.0 128.0,92.5" fill="#80977c" stroke="#526c57" stroke-width="0.4"/><polygon points="165.5,99.0 128.0,116.5 128.0,92.5" fill="#80977c" stroke="#526c57" stroke-width="0.4"/></svg>