<svg xmlns="http://www.w3.org/2000/svg" width="256" height="256" viewBox="0 0 256 256"><rect width="256" height="256" rx="16" fill="#edf0e5"/><polygon points="120.5,90.0 116.5,189.6 128.0,88.5" fill="#80977c" stroke="#526c57" stroke-width="0.4"/><polygon points="116.5,189.6 128.0,187.4 128.0,88.5" fill="#80977c" stroke="#526c57" stroke-width="0.4"/><polygon points="128.0,88.5 128.0,187.4 135.5,90.0" fill="#80977c" stroke="#526c57" stroke-width="0.4"/><polygon points="128.0,187.4 139.5,189.6 135.5,90.0" fill="#80977c" stroke="#526c57" stroke-width="0.4"/><polygon points="135.5,90.0 139.5,189.6 138.6,93.5" fill="#80977c" stroke="#526c57" stroke-width="0.4"/><polygon points="139.5,189.6 144.3,195.0 138.6,93.5" fill="#80977c" stroke="#526c57" stroke-width="0.4"/><polygon points="138.6,93.5 144.3,195.0 135.5,97.0" fill="#80977c" stroke="#526c57" stroke-width="0.4"/><polygon points="144.3,195.0 139.5,200.4 135.5,97.0" fill="#80977c" stroke="#526c57" stroke-width="0.4"/><polygon points="135.5,97.0 139.5,200.4 128.0,98.4" fill="#80977c" stroke="#526c57" stroke-width="0.4"/><polygon points="139.5,200.4 128.0,202.6 128.0,98.4" fill="#80977c" stroke="#526c57" stroke-width="0.4"/><polygon points="128.0,98.4 128.0,202.6 120.5,97.0" fill="#80977c" stroke="#526c57" stroke-width="0.4"/><polygon points="128.0,202.6 116.5,200.4 120.5,97.0" fill="#80977c" stroke="#526c57" stroke-width="0.4"/><polygon points="120.5,97.0 116.5,200.4 117.4,93.5" fill="#80977c" stroke="#526c57" stroke-width="0.4"/><polygon points="116.5,200.4 111.7,195.0 117.4,93.5" fill="#80977c" stroke="#526c57" stroke-width="0.4"/><polygon points="117.4,93.5 111.7,195.0 120.5,90.0" fill="#80977c" stroke="#526c57" stroke-width="0.4"/><polygon points="111.7,195.0 116.5,189.6 120.5,90.0" fill="#80977c" stroke="#526c57" stroke-width="0.4"/><polygon points="120.5,90.0 128.0,88.5 128.0,93.5" fill="#80977c" stroke="#526c57" stroke-width="0.4"/><polygon points="128.0,88.5 135.5,90.0 128.0,93.5" fill="#80977c" stroke="#526c57" stroke-width="0.4"/><polygon points="135.5,90.0 138.6,93.5 128.0,93.5" fill="#80977c" stroke="#526c57" stroke-width="0.4"/><polygon points="138.6,93.5 135.5,97.0 128.0,93.5" fill="#80977c" stroke="#526c57" stroke-width="0.4"/><polygon points="135.5,97.0 128.0,98.4 128.0,93.5" fill="#80977c" stroke="#526c57" stroke-width="0.4"/><polygon points="128.0,98.4 120.5,97.0 128.0,93.5" fill="#80977c" stroke="#526c57" stroke-width="0.4"/><polygon points="120.5,97.0 117.4,93.5 128.0,93.5" fill="#80977c" stroke="#526c57" stroke-width="0.4"/><polygon points="117.4,93.5 120.5,90.0 128.0,93.5" fill="#80977c" stroke="#526c57" stroke-width="0.4"/><polygon points="128.0,187.4 116.5,189.6 128.0,195.0" fill="#80977c" stroke="#526c57" stroke-width="0.4"/><polygon points="139.5,189.6 128.0,187.4 128.0,195.0" fill="#80977c" stroke="#526c57" stroke-width="0.4"/><polygon points="144.3,195.0 139.5,189.6 128.0,195.0" fill="#80977c" stroke="#526c57" stroke-width="0.4"/><polygon points="139.5,200.4 144.3,195.0 128.0,195.0" fill="#80977c" stroke="#526c57" stroke-width="0.4"/><polygon points="128.0,202.6 139.5,200.4 128.0,195.0" fill="#80977c" stroke="#526c57" stroke-width="0.4"/><polygon points="116.5,200.4 128.0,202.6 128.0,195.0" fill="#80977c" stroke="#526c57" stroke-width="0.4"/><polygon points="111.7,195.0 116.5,200.4 128.0,195.0" fill="#80977c" stroke="#526c57" stroke-width="0.4"/><polygon points="116.5,189.6 111.7,195.0 128.0,195.0" fill="#80977c" stroke="#526c57" stroke-width="0.4"/><polygon points="118.5,86.7 118.5,100.6 128.0,84.9" fill="#80977c" stroke="#526c57" stroke-width="0.4"/><polygon points="118.5,100.6 128.0,98.7 128.0,84.9" fill="#80977c" stroke="#526c57" stroke-width="0.4"/><polygon points="128.0,84.9 128.0,98.7 137.5,86.7" fill="#80977c" stroke="#526c57" stroke-width="0.4"/><polygon points="128.0,98.7 137.5,100.6 137.5,86.7" fill="#80977c" stroke="#526c57" stroke-width="0.4"/><polygon points="137.5,86.7 137.5,100.6 141.5,91.2" fill="#80977c" stroke="#526c57" stroke-width="0.4"/><polygon points="137.5,100.6 141.5,105.0 141.5,91.2" fill="#80977c" stroke="#526c57" stroke-width="0.4"/><polygon points="141.5,91.2 141.5,105.0 137.5,95.6" fill="#80977c" stroke="#526c57" stroke-width="0.4"/><polygon points="141.5,105.0 137.5,109.4 137.5,95.6" fill="#80977c" stroke="#526c57" stroke-width="0.4"/><polygon points="137.5,95.6 137.5,109.4 128.0,97.4" fill="#80977c" stroke="#526c57" stroke-width="0.4"/><polygon points="137.5,109.4 128.0,111.3 128.0,97.4" fill="#80977c" stroke="#526c57" stroke-width="0.4"/><polygon points="128.0,97.4 128.0,111.3 118.5,95.6" fill="#80977c" stroke="#526c57" stroke-width="0.4"/><polygon points="128.0,111.3 118.5,109.4 118.5,95.6" fill="#80977c" stroke="#526c57" stroke-width="0.4"/><polygon points="118.5,95.6 118.5,109.4 114.5,91.2" fill="#80977c" stroke="#526c57" stroke-width="0.4"/><polygon points="118.5,109.4 114.5,105.0 114.5,91.2" fill="#80977c" stroke="#526c57" stroke-width="0.4"/><polygon points="114.5,91.2 114.5,105.0 118.5,86.7" fill="#80977c" stroke="#526c57" stroke-width="0.4"/><polygon points="114.5,105.0 118.5,100.6 118.5,86.7" fill="#80977c" stroke="#526c57" stroke-width="0.4"/><polygon points="118.5,86.7 128.0,84.9 128.0,91.2" fill="#80977c" stroke="#526c57" stroke-width="0.4"/><polygon points="128.0,84.9 137.5,86.7 128.0,91.2" fill="#80977c" stroke="#526c57" stroke-width="0.4"/><polygon points="137.5,86.7 141.5,91.2 128.0,91.2" fill="#80977c" stroke="#526c57" stroke-width="0.4"/><polygon points="141.5,91.2 137.5,95.6 128.0,91.2" fill="#80977c" stroke="#526c57" stroke-width="0.4"/><polygon points="137.5,95.6 128.0,97.4 128.0,91.2" fill="#80977c" stroke="#526c57" stroke-width="0.4"/><polygon points="128.0,97.4 118.5,95.6 128.0,91.2" fill="#80977c" stroke="#526c57" stroke-width="0.4"/><polygon points="118.5,95.6 114.5,91.2 128.0,91.2" fill="#80977c" stroke="#526c57" stroke-width="0.4"/><polygon points="114.5,91.2 118.5,86.7 128.0,91.2" fill="#80977c" stroke="#526c57" stroke-width="0.4"/><polygon points="128.0,98.7 118.5,100.6 128.0,105.0" fill="#80977c" stroke="#526c57" stroke-width="0.4"/><polygon points="137.5,100.6 128.0,98.7 128.0,105.0" fill="#80977c" stroke="#526c57" stroke-width="0.4"/><polygon points="141.5,105.0 137.5,100.6 128.0,105.0" fill="#80977c" stroke="#526c57" stroke-width="0.4"/><polygon points="137.5,109.4 141.5,105.0 128.0,105.0" fill="#80977c" stroke="#526c57" stroke-width="0.4"/><polygon points="128.0,111.3 137.5,109.4 128.0,105.0" fill="#80977c" stroke="#526c57" stroke-width="0.4"/><polygon points="118.5,109.4 128.0,111.3 128.0,105.0" fill="#80977c" stroke="#526c57" stroke-width="0.4"/><polygon points="114.5,105.0 118.5,109.4 128.0,105.0" fill="#80977c" stroke="#526c57" stroke-width="0.4"/><polygon points="118.5,100.6 114.5,105.0 128.0,105.0" fill="#80977c" stroke="#526c57" stroke-width="0.4"/><polygon points="116.5,88.1 128.0,85.8 128.0,75.0" fill="#80977c" stroke="#526c57" stroke-width="0.4"/><polygon points="128.0,85.8 139.5,88.1 128.0,75.0" fill="#80977c" stroke="#526c57" stroke-width="0.4"/><polygon points="139.5,88.1 144.3,93.5 128.0,75.0" fill="#80977c" stroke="#526c57" stroke-width="0.4"/><polygon points="144.3,93.5 139.5,98.8 128.0,75.0" fill="#80977c" stroke="#526c57" stroke-width="0.4"/><polygon points="139.5,98.8 128.0,101.1 128.0,75.0" fill="#80977c" stroke="#526c57" stroke-width="0.4"/><polygon points="128.0,101.1 116.5,98.8 128.0,75.0" fill="#80977c" stroke="#526c57" stroke-width="0.4"/><polygon points="116.5,98.8 111.7,93.5 128.0,75.0" fill="#80977c" stroke="#526c57" stroke-width="0.4"/><polygon points="111.7,93.5 116.5,88.1 128.0,75.0" fill="#80977c" stroke="#526c57" stroke-width="0.4"/><polygon points="128.0,85.8 116.5,88.1 128.0,93.5" fill="#80977c" stroke="#526c57" stroke-width="0.4"/><polygon points="139.5,88.1 128.0,85.8 128.0,93.5" fill="#80977c" stroke="#526c57" stroke-width="0.4"/><polygon points="144.3,93.5 139.5,88.1 128.0,93.5" fill="#80977c" stroke="#526c57" stroke-width="0.4"/><polygon points="139.5,98.8 144.3,93.5 128.0,93.5" fill="#80977c" stroke="#526c57" stroke-width="0.4"/><polygon points="128.0,101.1 139.5,98.8 128.0,93.5" fill="#80977c" stroke="#526c57" stroke-width="0.4"/><polygon points="116.5,98.8 128.0,101.1 128.0,93.5" fill="#80977c" stroke="#526c57" stroke-width="0.4"/><polygon points="111.7,93.5 116.5,98.8 128.0,93.5" fill="#80977c" stroke="#526c57" stroke-width="0.4"/><polygon points="116.5,88.1 111.7,93.5 128.0,93.5" fill="#80977c" stroke="#526c57" stroke-width="0.4"/></svg>