<svg xmlns="http://www.w3.org/2000/svg" width="256" height="256" viewBox="0 0 256 256"><rect width="256" height="256" rx="16" fill="#edf0e5"/><polygon points="109.2,77.0 108.2,196.5 119.2,75.7" fill="#80977c" stroke="#526c57" stroke-width="0.4"/><polygon points="108.2,196.5 119.6,195.1 119.2,75.7" fill="#80977c" stroke="#526c57" stroke-width="0.4"/><polygon points="119.2,75.7 119.6,195.1 126.5,79.1" fill="#80977c" stroke="#526c57" stroke-width="0.4"/><polygon points="119.6,195.1 127.9,198.9 126.5,79.1" fill="#80977c" stroke="#526c57" stroke-width="0.4"/><polygon points="126.5,79.1 127.9,198.9 123.8,83.8" fill="#80977c" stroke="#526c57" stroke-width="0.4"/><polygon points="127.9,198.9 124.8,204.3 123.8,83.8" fill="#80977c" stroke="#526c57" stroke-width="0.4"/><polygon points="123.8,83.8 124.8,204.3 113.8,85.0" fill="#80977c" stroke="#526c57" stroke-width="0.4"/><polygon points="124.8,204.3 113.5,205.7 113.8,85.0" fill="#80977c" stroke="#526c57" stroke-width="0.4"/><polygon points="113.8,85.0 113.5,205.7 106.5,81.6" fill="#80977c" stroke="#526c57" stroke-width="0.4"/><polygon points="113.5,205.7 105.1,201.8 106.5,81.6" fill="#80977c" stroke="#526c57" stroke-width="0.4"/><polygon points="106.5,81.6 105.1,201.8 109.2,77.0" fill="#80977c" stroke="#526c57" stroke-width="0.4"/><polygon points="105.1,201.8 108.2,196.5 109.2,77.0" fill="#80977c" stroke="#526c57" stroke-width="0.4"/><polygon points="109.2,77.0 119.2,75.7 116.5,80.4" fill="#80977c" stroke="#526c57" stroke-width="0.4"/><polygon points="119.2,75.7 126.5,79.1 116.5,80.4" fill="#80977c" stroke="#526c57" stroke-width="0.4"/><polygon points="126.5,79.1 123.8,83.8 116.5,80.4" fill="#80977c" stroke="#526c57" stroke-width="0.4"/><polygon points="123.8,83.8 113.8,85.0 116.5,80.4" fill="#80977c" stroke="#526c57" stroke-width="0.4"/><polygon points="113.8,85.0 106.5,81.6 116.5,80.4" fill="#80977c" stroke="#526c57" stroke-width="0.4"/><polygon points="106.5,81.6 109.2,77.0 116.5,80.4" fill="#80977c" stroke="#526c57" stroke-width="0.4"/><polygon points="119.6,195.1 108.2,196.5 116.5,200.4" fill="#80977c" stroke="#526c57" stroke-width="0.4"/><polygon points="127.9,198.9 119.6,195.1 116.5,200.4" fill="#80977c" stroke="#526c57" stroke-width="0.4"/><polygon points="124.8,204.3 127.9,198.9 116.5,200.4" fill="#80977c" stroke="#526c57" stroke-width="0.4"/><polygon points="113.5,205.7 124.8,204.3 116.5,200.4" fill="#80977c" stroke="#526c57" stroke-width="0.4"/><polygon points="105.1,201.8 113.5,205.7 116.5,200.4" fill="#80977c" stroke="#526c57" stroke-width="0.4"/><polygon points="108.2,196.5 105.1,201.8 116.5,200.4" fill="#80977c" stroke="#526c57" stroke-width="0.4"/><polygon points="141.0,117.1 141.0,132.1 150.4,121.4" fill="#80977c" stroke="#526c57" stroke-width="0.4"/><polygon points="141.0,132.1 150.4,136.4 150.4,121.4" fill="#80977c" stroke="#526c57" stroke-width="0.4"/><polygon points="117.0,137.0 117.0,152.0 107.7,132.6" fill="#80977c" stroke="#526c57" stroke-width="0.4"/><polygon points="117.0,152.0 107.7,147.6 107.7,132.6" fill="#80977c" stroke="#526c57" stroke-width="0.4"/><polygon points="117.0,137.0 107.7,132.6 150.4,121.4" fill="#80977c" stroke="#526c57" stroke-width="0.4"/><polygon points="107.7,132.6 141.0,117.1 150.4,121.4" fill="#80977c" stroke="#526c57" stroke-width="0.4"/><polygon points="107.7,147.6 117.0,152.0 141.0,132.1" fill="#80977c" stroke="#526c57" stroke-width="0.4"/><polygon points="117.0,152.0 150.4,136.4 141.0,132.1" fill="#80977c" stroke="#526c57" stroke-width="0.4"/><polygon points="107.7,132.6 107.7,147.6 141.0,117.1" fill="#80977c" stroke="#526c57" stroke-width="0.4"/><polygon points="107.7,147.6 141.0,132.1 141.0,117.1" fill="#80977c" stroke="#526c57" stroke-width="0.4"/><polygon points="150.4,121.4 150.4,136.4 117.0,137.0" fill="#80977c" stroke="#526c57" stroke-width="0.4"/><polygon points="150.4,136.4 117.0,152.0 117.0,137.0" fill="#80977c" stroke="#526c57" stroke-width="0.4"/><polygon points="142.5,82.7 142.5,132.7 150.9,86.5" fill="#80977c" stroke="#526c57" stroke-width="0.4"/><polygon points="142.5,132.7 150.9,136.5 150.9,86.5" fill="#80977c" stroke="#526c57" stroke-width="0.4"/><polygon points="142.5,90.4 142.5,140.4 134.2,86.5" fill="#80977c" stroke="#526c57" stroke-width="0.4"/><polygon points="142.5,140.4 134.2,136.5 134.2,86.5" fill="#80977c" stroke="#526c57" stroke-width="0.4"/><polygon points="142.5,90.4 134.2,86.5 150.9,86.5" fill="#80977c" stroke="#526c57" stroke-width="0.4"/><polygon points="134.2,86.5 142.5,82.7 150.9,86.5" fill="#80977c" stroke="#526c57" stroke-width="0.4"/><polygon points="134.2,136.5 142.5,140.4 142.5,132.7" fill="#80977c" stroke="#526c57" stroke-width="0.4"/><polygon points="142.5,140.4 150.9,136.5 142.5,132.7" fill="#80977c" stroke="#526c57" stroke-width="0.4"/><polygon points="134.2,86.5 134.2,136.5 142.5,82.7" fill="#80977c" stroke="#526c57" stroke-width="0.4"/><polygon points="134.2,136.5 142.5,132.7 142.5,82.7" fill="#80977c" stroke="#526c57" stroke-width="0.4"/><polygon points="150.9,86.5 150.9,136.5 142.5,90.4" fill="#80977c" stroke="#526c57" stroke-width="0.4"/><polygon points="150.9,136.5 142.5,140.4 142.5,90.4" fill="#80977c" stroke="#526c57" stroke-width="0.4"/></svg>